ply
format ascii 1.0
comment Created by Blender 2.69 (sub 0) - www.blender.org, source file: 'flag-post-7-10-n.blend'
element vertex 23
property float x
property float y
property float z
property float nx
property float ny
property float nz
property float s
property float t
element face 9
property list uchar uint vertex_indices
end_header
0.529115 0.000000 1.344770 0.000000 1.000000 0.000000 0.062500 1.000000
0.043845 0.000000 1.344770 0.000000 1.000000 0.000000 1.000000 1.000000
0.043845 0.000000 1.684460 0.000000 1.000000 0.000000 1.000000 0.000000
0.529115 -0.000000 1.684460 0.000000 1.000000 0.000000 0.062500 0.000000
0.043845 -0.000000 1.344770 0.000000 -1.000000 0.000000 0.062500 1.000000
0.529115 -0.000000 1.344770 0.000000 -1.000000 0.000000 1.000000 1.000000
0.529115 0.000000 1.684460 0.000000 -1.000000 0.000000 1.000000 0.000000
0.043845 0.000000 1.684460 0.000000 -1.000000 0.000000 0.062500 0.000000
-0.089449 -0.000000 1.123885 -0.999969 0.000000 0.000000 0.000000 1.000000
-0.089449 -0.000000 1.682411 -0.999969 0.000000 0.000000 0.000000 1.000000
0.024287 0.065665 1.682411 0.499985 0.866024 0.000000 0.000000 1.000000
0.024287 0.065665 1.123885 0.499985 0.866024 0.000000 0.000000 1.000000
0.024286 -0.065665 1.123885 0.499985 -0.866024 0.000000 0.000000 1.000000
0.024286 -0.065665 1.682411 0.499985 -0.866024 0.000000 0.000000 1.000000
0.024287 0.065665 1.682411 0.000000 -0.000000 1.000000 0.000000 1.000000
-0.089449 -0.000000 1.682411 0.000000 -0.000000 1.000000 0.000000 1.000000
0.024286 -0.065665 1.682411 0.000000 -0.000000 1.000000 0.000000 1.000000
-0.184553 0.000000 1.000000 -0.793207 0.000000 0.608936 0.000000 1.000000
-0.089449 -0.000000 1.123885 -0.793207 0.000000 0.608936 0.000000 1.000000
0.024287 0.065665 1.123885 0.396588 0.686941 0.608936 0.000000 1.000000
0.071839 0.148028 1.000000 0.396588 0.686941 0.608936 0.000000 1.000000
0.071839 -0.148028 1.000000 0.396588 -0.686941 0.608936 0.000000 1.000000
0.024286 -0.065665 1.123885 0.396588 -0.686941 0.608936 0.000000 1.000000
4 0 1 2 3
4 4 5 6 7
4 8 9 10 11
4 12 13 9 8
4 11 10 13 12
3 14 15 16
4 17 18 19 20
4 21 22 18 17
4 20 19 22 21
