<?xml version="1.0" encoding="UTF-8" standalone="no"?>
<!-- Created with Inkscape (http://www.inkscape.org/) -->

<svg
   xmlns:dc="http://purl.org/dc/elements/1.1/"
   xmlns:cc="http://creativecommons.org/ns#"
   xmlns:rdf="http://www.w3.org/1999/02/22-rdf-syntax-ns#"
   xmlns:svg="http://www.w3.org/2000/svg"
   xmlns="http://www.w3.org/2000/svg"
   xmlns:xlink="http://www.w3.org/1999/xlink"
   xmlns:sodipodi="http://sodipodi.sourceforge.net/DTD/sodipodi-0.dtd"
   xmlns:inkscape="http://www.inkscape.org/namespaces/inkscape"
   width="346.5"
   height="115.75177"
   id="svg3100"
   version="1.1"
   inkscape:version="0.48.5 r10040"
   sodipodi:docname="title.svg">
  <defs
     id="defs3102">
    <linearGradient
       inkscape:collect="always"
       xlink:href="#linearGradient3923"
       id="linearGradient3993"
       gradientUnits="userSpaceOnUse"
       gradientTransform="matrix(2,0,0,2,258.63148,625.5583)"
       x1="210.07104"
       y1="134.77032"
       x2="229.60481"
       y2="134.77032" />
    <linearGradient
       id="linearGradient3923">
      <stop
         style="stop-color:#0000ff;stop-opacity:1;"
         offset="0"
         id="stop3925" />
      <stop
         style="stop-color:#0000b1;stop-opacity:1;"
         offset="1"
         id="stop3927" />
    </linearGradient>
    <linearGradient
       inkscape:collect="always"
       xlink:href="#linearGradient3923"
       id="linearGradient3991"
       gradientUnits="userSpaceOnUse"
       gradientTransform="matrix(2,0,0,2,258.63148,625.5583)"
       x1="187.89061"
       y1="135.05682"
       x2="209.20267"
       y2="135.05682" />
    <linearGradient
       id="linearGradient3123">
      <stop
         style="stop-color:#0000ff;stop-opacity:1;"
         offset="0"
         id="stop3125" />
      <stop
         style="stop-color:#0000b1;stop-opacity:1;"
         offset="1"
         id="stop3127" />
    </linearGradient>
    <linearGradient
       inkscape:collect="always"
       xlink:href="#linearGradient3923"
       id="linearGradient3989"
       gradientUnits="userSpaceOnUse"
       gradientTransform="matrix(2,0,0,2,258.63148,625.5583)"
       x1="166.20413"
       y1="138.97894"
       x2="186.98271"
       y2="138.97894" />
    <linearGradient
       id="linearGradient3130">
      <stop
         style="stop-color:#0000ff;stop-opacity:1;"
         offset="0"
         id="stop3132" />
      <stop
         style="stop-color:#0000b1;stop-opacity:1;"
         offset="1"
         id="stop3134" />
    </linearGradient>
    <linearGradient
       inkscape:collect="always"
       xlink:href="#linearGradient3923"
       id="linearGradient3987"
       gradientUnits="userSpaceOnUse"
       gradientTransform="matrix(2,0,0,2,258.63148,625.5583)"
       x1="145.58464"
       y1="135.05682"
       x2="165.27647"
       y2="135.05682" />
    <linearGradient
       id="linearGradient3137">
      <stop
         style="stop-color:#0000ff;stop-opacity:1;"
         offset="0"
         id="stop3139" />
      <stop
         style="stop-color:#0000b1;stop-opacity:1;"
         offset="1"
         id="stop3141" />
    </linearGradient>
    <linearGradient
       inkscape:collect="always"
       xlink:href="#linearGradient3923"
       id="linearGradient3985"
       gradientUnits="userSpaceOnUse"
       gradientTransform="matrix(2,0,0,2,258.63148,625.5583)"
       x1="130.35495"
       y1="131.89542"
       x2="145.16637"
       y2="131.89542" />
    <linearGradient
       id="linearGradient3144">
      <stop
         style="stop-color:#0000ff;stop-opacity:1;"
         offset="0"
         id="stop3146" />
      <stop
         style="stop-color:#0000b1;stop-opacity:1;"
         offset="1"
         id="stop3148" />
    </linearGradient>
    <linearGradient
       inkscape:collect="always"
       xlink:href="#linearGradient3923"
       id="linearGradient3983"
       gradientUnits="userSpaceOnUse"
       gradientTransform="matrix(2,0,0,2,258.63148,625.5583)"
       x1="111.21302"
       y1="135.05682"
       x2="129.71935"
       y2="135.05682" />
    <linearGradient
       id="linearGradient3151">
      <stop
         style="stop-color:#0000ff;stop-opacity:1;"
         offset="0"
         id="stop3153" />
      <stop
         style="stop-color:#0000b1;stop-opacity:1;"
         offset="1"
         id="stop3155" />
    </linearGradient>
    <linearGradient
       inkscape:collect="always"
       xlink:href="#linearGradient3923"
       id="linearGradient3981"
       gradientUnits="userSpaceOnUse"
       gradientTransform="matrix(2,0,0,2,258.63148,625.5583)"
       x1="90.474968"
       y1="135.05682"
       x2="111.78704"
       y2="135.05682" />
    <linearGradient
       id="linearGradient3158">
      <stop
         style="stop-color:#0000ff;stop-opacity:1;"
         offset="0"
         id="stop3160" />
      <stop
         style="stop-color:#0000b1;stop-opacity:1;"
         offset="1"
         id="stop3162" />
    </linearGradient>
    <linearGradient
       inkscape:collect="always"
       xlink:href="#linearGradient3923"
       id="linearGradient3979"
       gradientUnits="userSpaceOnUse"
       gradientTransform="matrix(2,0,0,2,258.63148,625.5583)"
       x1="145.59418"
       y1="105.98336"
       x2="159.556"
       y2="105.98336" />
    <linearGradient
       id="linearGradient3165">
      <stop
         style="stop-color:#0000ff;stop-opacity:1;"
         offset="0"
         id="stop3167" />
      <stop
         style="stop-color:#0000b1;stop-opacity:1;"
         offset="1"
         id="stop3169" />
    </linearGradient>
    <linearGradient
       inkscape:collect="always"
       xlink:href="#linearGradient3923"
       id="linearGradient3977"
       gradientUnits="userSpaceOnUse"
       gradientTransform="matrix(2,0,0,2,258.63148,625.5583)"
       x1="123.53229"
       y1="106.26986"
       x2="143.22414"
       y2="106.26986" />
    <linearGradient
       id="linearGradient3172">
      <stop
         style="stop-color:#0000ff;stop-opacity:1;"
         offset="0"
         id="stop3174" />
      <stop
         style="stop-color:#0000b1;stop-opacity:1;"
         offset="1"
         id="stop3176" />
    </linearGradient>
    <linearGradient
       inkscape:collect="always"
       xlink:href="#linearGradient3923"
       id="linearGradient3975"
       gradientUnits="userSpaceOnUse"
       gradientTransform="matrix(2,0,0,2,258.63148,625.5583)"
       x1="117.6924"
       y1="101.94268"
       x2="122.32803"
       y2="101.94268" />
    <linearGradient
       id="linearGradient3179">
      <stop
         style="stop-color:#0000ff;stop-opacity:1;"
         offset="0"
         id="stop3181" />
      <stop
         style="stop-color:#0000b1;stop-opacity:1;"
         offset="1"
         id="stop3183" />
    </linearGradient>
    <linearGradient
       inkscape:collect="always"
       xlink:href="#linearGradient3923"
       id="linearGradient3973"
       gradientUnits="userSpaceOnUse"
       gradientTransform="matrix(2,0,0,2,258.63148,625.5583)"
       x1="95.630524"
       y1="106.26986"
       x2="115.1643"
       y2="106.26986" />
    <linearGradient
       id="linearGradient3186">
      <stop
         style="stop-color:#0000ff;stop-opacity:1;"
         offset="0"
         id="stop3188" />
      <stop
         style="stop-color:#0000b1;stop-opacity:1;"
         offset="1"
         id="stop3190" />
    </linearGradient>
    <linearGradient
       inkscape:collect="always"
       xlink:href="#linearGradient3923"
       id="linearGradient3971"
       gradientUnits="userSpaceOnUse"
       gradientTransform="matrix(2,0,0,2,258.63148,625.5583)"
       x1="72.73877"
       y1="110.19199"
       x2="93.517349"
       y2="110.19199" />
    <linearGradient
       id="linearGradient3193">
      <stop
         style="stop-color:#0000ff;stop-opacity:1;"
         offset="0"
         id="stop3195" />
      <stop
         style="stop-color:#0000b1;stop-opacity:1;"
         offset="1"
         id="stop3197" />
    </linearGradient>
    <linearGradient
       inkscape:collect="always"
       xlink:href="#linearGradient3923"
       id="linearGradient3969"
       gradientUnits="userSpaceOnUse"
       gradientTransform="matrix(2,0,0,2,258.63148,625.5583)"
       x1="49.842655"
       y1="106.26986"
       x2="71.35231"
       y2="106.26986" />
    <linearGradient
       id="linearGradient3200">
      <stop
         style="stop-color:#0000ff;stop-opacity:1;"
         offset="0"
         id="stop3202" />
      <stop
         style="stop-color:#0000b1;stop-opacity:1;"
         offset="1"
         id="stop3204" />
    </linearGradient>
    <linearGradient
       inkscape:collect="always"
       xlink:href="#linearGradient3923"
       id="linearGradient3967"
       gradientUnits="userSpaceOnUse"
       gradientTransform="matrix(2,0,0,2,-71.953008,-142.9023)"
       x1="37.477997"
       y1="105.98336"
       x2="51.439781"
       y2="105.98336" />
    <linearGradient
       id="linearGradient3207">
      <stop
         style="stop-color:#0000ff;stop-opacity:1;"
         offset="0"
         id="stop3209" />
      <stop
         style="stop-color:#0000b1;stop-opacity:1;"
         offset="1"
         id="stop3211" />
    </linearGradient>
    <linearGradient
       y2="105.98336"
       x2="51.439781"
       y1="105.98336"
       x1="37.477997"
       gradientTransform="matrix(2,0,0,2,258.63148,625.5583)"
       gradientUnits="userSpaceOnUse"
       id="linearGradient3227"
       xlink:href="#linearGradient3923"
       inkscape:collect="always" />
  </defs>
  <sodipodi:namedview
     id="base"
     pagecolor="#68e7e2"
     bordercolor="#666666"
     borderopacity="1.0"
     inkscape:pageopacity="0"
     inkscape:pageshadow="2"
     inkscape:zoom="1.4575927"
     inkscape:cx="115.97733"
     inkscape:cy="55.442757"
     inkscape:document-units="px"
     inkscape:current-layer="layer1"
     showgrid="false"
     inkscape:window-width="1920"
     inkscape:window-height="1134"
     inkscape:window-x="0"
     inkscape:window-y="27"
     inkscape:window-maximized="1"
     fit-margin-top="0"
     fit-margin-left="0"
     fit-margin-right="0"
     fit-margin-bottom="0"
     showguides="true"
     inkscape:guide-bbox="true" />
  <metadata
     id="metadata3105">
    <rdf:RDF>
      <cc:Work
         rdf:about="">
        <dc:format>image/svg+xml</dc:format>
        <dc:type
           rdf:resource="http://purl.org/dc/dcmitype/StillImage" />
        <dc:title />
      </cc:Work>
    </rdf:RDF>
  </metadata>
  <g
     inkscape:label="Layer 1"
     inkscape:groupmode="layer"
     id="layer1"
     transform="translate(-2.0625,-950.34375)">
    <path
       sodipodi:nodetypes="cccccccccccccccccccccscsccccccsccsccssssccccccccccccsscccccccccccccccccccccccccccccccccscsccccccccsccccccccsscscscccccccscscscccccccccccccccscsccccccccsccccccc"
       inkscape:connector-curvature="0"
       d="m 188.51805,953.37831 c -1.27045,0.0181 -2.49825,0.81643 -3.0276,1.97146 l -0.91533,1.83065 -2.04188,0.35205 c -2.45073,0.42356 -3.55782,4.05479 -1.76023,5.77357 l 1.47859,1.4786 -0.28163,2.04187 c -0.33821,2.44932 2.74305,4.6062 4.92866,3.45006 l 1.83065,-0.98572 1.83063,0.91532 c 2.22208,1.12587 5.28265,-1.13629 4.85826,-3.59088 l -0.35205,-2.04188 1.4082,-1.4786 c 1.81315,-1.77337 0.54764,-5.47952 -1.97147,-5.77357 l -2.04187,-0.28164 -0.91532,-1.83066 c -0.56891,-1.10309 -1.78649,-1.83928 -3.02761,-1.83063 z m 148.12001,54.17459 c -6e-5,-7.55462 -1.56765,-13.40944 -4.70275,-17.56455 -3.09745,-4.155 -7.46025,-6.23251 -13.0884,-6.23256 -5.59045,5e-5 -9.95325,2.07756 -13.0884,6.23256 -3.09741,4.15511 -4.64612,10.00993 -4.6461,17.56455 -2e-5,7.5169 1.54869,13.3528 4.6461,17.5078 3.13515,4.1551 7.49795,6.2326 13.0884,6.2326 5.62815,0 9.99095,-2.0775 13.0884,-6.2326 3.1351,-4.155 4.70269,-9.9909 4.70275,-17.5078 m 10.42539,24.5903 c -7e-5,10.8031 -2.39865,18.8299 -7.19578,24.0803 -4.79726,5.2882 -12.1441,7.9325 -22.04065,7.9325 -7.85016,-0.8067 -75.82281,1.4028 -85.57654,-0.099 -1.43315,-1.2306 -2.55511,-7.7177 0.53326,-8.3027 3.08839,-0.585 73.84593,-1.0408 83.40015,-0.2107 6.83691,0 11.95516,-1.7943 15.35478,-5.3827 3.39955,-3.5505 5.09939,-8.9332 5.09939,-16.148 l 0,-5.156 c -2.15312,3.7395 -4.91055,6.5347 -8.27232,8.3856 -3.36186,1.8508 -7.38467,2.7764 -12.06852,2.7764 -7.7813,0 -14.05163,-2.9654 -18.81103,-8.8956 -4.75943,-5.9304 -7.13913,-13.7872 -7.13913,-23.5705 0,-9.82096 2.3797,-17.69666 7.13913,-23.62711 4.7594,-5.93032 11.02973,-8.89551 18.81103,-8.89558 4.68385,7e-5 8.70666,0.92551 12.06852,2.77633 3.36177,1.85095 6.1192,4.64615 8.27232,8.38565 l 0,-9.63215 10.42539,0 0,55.58316 m -60.72491,-30.426 0,38.302 -10.42538,0 0,-37.9621 c -7e-5,-6.00585 -1.17103,-10.50085 -3.5129,-13.48498 -2.34199,-2.98403 -5.85489,-4.47606 -10.53871,-4.47612 -5.62824,6e-5 -10.06656,1.79428 -13.31505,5.38269 -3.24851,3.58849 -4.87274,8.48011 -4.87274,14.67491 l 0,35.8656 -10.48204,0 0,-63.45893 10.48204,0 0,9.85878 c 2.49302,-3.81503 5.42043,-6.6669 8.78225,-8.55561 3.39959,-1.88859 7.3091,-2.83293 11.72859,-2.833 7.29015,7e-5 12.80502,2.26645 16.54465,6.79918 3.73946,4.49506 5.60922,11.12422 5.60929,19.88758 m -68.70233,-25.15693 10.42536,0 0,63.45893 -10.42536,0 0,-63.45893 m 0,-21.22568 10.42536,0 0,13.20172 -10.42536,0 0,-13.20172 m -17.88435,-3.47798 10.42538,0 0,88.16259 -10.42538,0 0,-88.16259 m -16.33861,24.70366 10.4254,0 0,63.45893 -10.4254,0 0,-63.45893 m -15.73706,31.78613 c -5e-5,-7.668 -1.58652,-13.67387 -4.75941,-18.01783 -3.13522,-4.38162 -7.46025,-6.57248 -12.97508,-6.57252 -5.51492,4e-5 -9.85882,2.1909 -13.03175,6.57252 -3.13519,4.34396 -4.70276,10.34983 -4.70274,18.01783 -2e-5,7.6679 1.56755,13.6928 4.70274,18.0744 3.17293,4.3439 7.51683,6.5159 13.03175,6.5159 5.51483,0 9.83986,-2.172 12.97508,-6.5159 3.17289,-4.3816 4.75936,-10.4065 4.75941,-18.0744 m -35.46898,-22.15468 c 2.19083,-3.77726 4.94824,-6.57248 8.27231,-8.38565 3.36179,-1.85083 7.36573,-2.77627 12.01186,-2.77634 7.70568,7e-5 13.95714,3.05969 18.75438,9.17889 4.83488,6.1193 7.25237,14.16496 7.25244,24.13708 -7e-5,9.9721 -2.41756,18.0178 -7.25244,24.137 -4.79724,6.1193 -11.0487,9.179 -18.75438,9.179 -4.64613,0 -8.65007,-0.9067 -12.01186,-2.7198 -3.32407,-1.8509 -6.08148,-4.665 -8.27231,-8.4423 l 0,9.5189 -10.48205,0 0,-88.1626 10.48205,0 0,34.33582 M 95.641098,1008.119 c -8.423446,0 -14.259393,0.9632 -17.507859,2.8896 -3.248509,1.9265 -4.872754,5.2127 -4.872736,9.8588 -1.8e-5,3.7018 1.208723,6.6481 3.626223,8.8389 2.455231,2.1531 5.779266,3.2296 9.972112,3.2296 5.779256,0 10.406463,-2.0397 13.881632,-6.1192 3.51286,-4.1173 5.26936,-9.5755 5.26936,-16.3747 l 0,-2.323 -10.368732,0 m 20.794122,-4.3062 0,36.2056 -10.42539,0 0,-9.6322 c -2.37976,3.8529 -5.34495,6.7047 -8.895579,8.5556 -3.550715,1.8131 -7.894623,2.7198 -13.031739,2.7198 -6.497003,0 -11.671921,-1.8133 -15.524767,-5.4394 -3.815095,-3.664 -5.722638,-8.5556 -5.722631,-14.6749 -7e-6,-7.1391 2.379698,-12.5217 7.139126,-16.148 4.797171,-3.6262 11.936289,-5.43933 21.417376,-5.43933 l 14.618214,0 0,-1.01987 c -5e-5,-4.79714 -1.58652,-8.49893 -4.75942,-11.10532 -3.135214,-2.64405 -7.55467,-3.96611 -13.258377,-3.96618 -3.626251,7e-5 -7.158038,0.43445 -10.595369,1.30317 -3.437375,0.86884 -6.742523,2.17201 -9.915454,3.90951 l 0,-9.63214 c 3.815075,-1.47308 7.51684,-2.56849 11.105309,-3.28627 3.588422,-0.75539 7.082436,-1.13313 10.482049,-1.1332 9.178834,7e-5 16.034652,2.37979 20.567482,7.13915 4.53272,4.75947 6.7991,11.97414 6.79917,21.64398 m -66.916766,4.5328 c -5.7e-5,-7.6679 -1.586528,-13.67382 -4.759416,-18.01778 -3.135222,-4.38164 -7.460243,-6.57248 -12.975079,-6.57253 -5.514914,5e-5 -9.858823,2.19089 -13.031739,6.57253 -3.135193,4.34396 -4.702779,10.34988 -4.702759,18.01778 -2e-5,7.668 1.567566,13.6928 4.702759,18.0744 3.172916,4.344 7.516825,6.5159 13.031739,6.5159 5.514836,0 9.839857,-2.1719 12.975079,-6.5159 3.172888,-4.3816 4.759359,-10.4064 4.759416,-18.0744 M 14.049461,986.19217 c 2.190821,-3.77728 4.94826,-6.5725 8.272324,-8.38565 3.361776,-1.85084 7.365727,-2.77628 12.011862,-2.77635 7.705673,7e-5 13.957125,3.0597 18.754368,9.1789 4.834902,6.11928 7.252379,14.16497 7.252448,24.13703 -6.9e-5,9.9721 -2.417546,18.0178 -7.252448,24.137 -4.797243,6.1193 -11.048695,9.179 -18.754368,9.179 -4.646135,0 -8.650086,-0.9067 -12.011862,-2.7198 -3.324064,-1.8509 -6.081503,-4.6649 -8.272324,-8.4422 l 0,9.5188 -10.4820482,0 0,-88.16254 10.4820482,0 0,34.33581"
       style="font-size:medium;font-style:normal;font-variant:normal;font-weight:normal;font-stretch:normal;text-indent:0;text-align:start;text-decoration:none;line-height:normal;letter-spacing:normal;word-spacing:normal;text-transform:none;direction:ltr;block-progression:tb;writing-mode:lr-tb;text-anchor:start;baseline-shift:baseline;color:#000000;fill:#008080;fill-opacity:1;fill-rule:nonzero;stroke:#ffffff;stroke-width:3.00000024;marker:none;visibility:visible;display:inline;overflow:visible;enable-background:accumulate;font-family:Sans;-inkscape-font-specification:Sans"
       id="path3915" />
    <g
       style="font-size:51.50191498px;font-style:normal;font-weight:normal;line-height:125%;letter-spacing:0px;word-spacing:0px;fill:#00ffff;fill-opacity:1;stroke:none;font-family:Sans"
       id="text3063"
       transform="matrix(2.2531032,0,0,2.2531032,-115.37933,-1217.5064)" />
    <path
       id="path3084"
       style="font-size:medium;font-style:normal;font-variant:normal;font-weight:normal;font-stretch:normal;text-indent:0;text-align:start;text-decoration:none;line-height:normal;letter-spacing:normal;word-spacing:normal;text-transform:none;direction:ltr;block-progression:tb;writing-mode:lr-tb;text-anchor:start;baseline-shift:baseline;color:#000000;fill:#008080;fill-opacity:1;fill-rule:nonzero;stroke:none;stroke-width:3;marker:none;visibility:visible;display:inline;overflow:visible;enable-background:accumulate;font-family:Sans;-inkscape-font-specification:Sans"
       d="m 188.51804,953.37826 c -1.27045,0.0179 -2.49824,0.81643 -3.02761,1.97147 l -0.91532,1.83064 -2.04186,0.35205 c -2.45074,0.42356 -3.55782,4.0548 -1.76025,5.77358 l 1.4786,1.4786 -0.28163,2.04186 c -0.33821,2.44931 2.74306,4.60621 4.92866,3.45008 l 1.83064,-0.98575 1.83065,0.91533 c 2.22206,1.12588 5.28263,-1.13628 4.85826,-3.59088 l -0.35205,-2.04188 1.40818,-1.47859 c 1.81317,-1.77338 0.54764,-5.47953 -1.97146,-5.77358 l -2.04188,-0.28163 -0.91532,-1.83065 c -0.56891,-1.10309 -1.78648,-1.83931 -3.02761,-1.83065 z m 148.12001,54.17454 c -4e-5,-7.55457 -1.56763,-13.40939 -4.70274,-17.5645 -3.09746,-4.15499 -7.46026,-6.23251 -13.08841,-6.23255 -5.59045,4e-5 -9.95325,2.07756 -13.0884,6.23255 -3.0974,4.15511 -4.64612,10.00993 -4.6461,17.5645 -2e-5,7.5169 1.5487,13.3529 4.6461,17.5079 3.13515,4.1551 7.49795,6.2326 13.0884,6.2325 5.62815,10e-5 9.99095,-2.0774 13.08841,-6.2325 3.13511,-4.155 4.7027,-9.991 4.70274,-17.5079 m 10.4254,24.5903 c -6e-5,10.8033 -2.39865,18.8299 -7.19579,24.0803 -4.79724,5.2882 -12.1441,7.9325 -22.04063,7.9325 -7.85018,-0.8066 -75.82283,1.4028 -85.57656,-0.099 -1.43315,-1.2306 -2.5551,-7.7178 0.53327,-8.3027 3.08837,-0.5848 73.84592,-1.0409 83.40014,-0.2106 6.83691,0 11.95516,-1.7944 15.35478,-5.3826 3.39957,-3.5508 5.09939,-8.9334 5.09939,-16.1481 l 0,-5.1561 c -2.15311,3.7396 -4.91055,6.5348 -8.27232,8.3858 -3.36184,1.8505 -7.38467,2.7762 -12.06852,2.7762 -7.78128,0 -14.05163,-2.9653 -18.81101,-8.8956 -4.75943,-5.9304 -7.13915,-13.7872 -7.13915,-23.5704 0,-9.82101 2.37972,-17.69671 7.13915,-23.62714 4.75938,-5.93033 11.02973,-8.89553 18.81101,-8.8956 4.68385,7e-5 8.70668,0.92551 12.06852,2.77635 3.36177,1.85094 6.11921,4.64615 8.27232,8.38565 l 0,-9.63217 10.4254,0 0,55.58321 m -60.72492,-30.4261 0,38.3019 -10.42538,0 0,-37.9619 c -5e-5,-6.0059 -1.17101,-10.5009 -3.5129,-13.48501 -2.34199,-2.98405 -5.85489,-4.47607 -10.5387,-4.47614 -5.62826,7e-5 -10.06658,1.79428 -13.31505,5.38268 -3.2485,3.5885 -4.87275,8.48012 -4.87275,14.67487 l 0,35.8655 -10.48205,0 0,-63.45878 10.48205,0 0,9.8588 c 2.49302,-3.81505 5.42043,-6.66691 8.78227,-8.55562 3.39956,-1.8886 7.30908,-2.83294 11.72856,-2.83302 7.29016,8e-5 12.80505,2.26648 16.54465,6.79921 3.73948,4.49504 5.60923,11.12422 5.6093,19.88751 m -68.70234,-25.15688 10.42539,0 0,63.45878 -10.42539,0 0,-63.45878 m 0,-21.22566 10.42539,0 0,13.20171 -10.42539,0 0,-13.20171 m -17.88434,-3.47799 10.42538,0 0,88.16243 -10.42538,0 0,-88.16243 m -16.33859,24.70365 10.4254,0 0,63.45878 -10.4254,0 0,-63.45878 m -15.73707,31.78608 c -5e-5,-7.6679 -1.58653,-13.6738 -4.75941,-18.01777 -3.13522,-4.38163 -7.46025,-6.57248 -12.97508,-6.57253 -5.51492,5e-5 -9.85882,2.1909 -13.03175,6.57253 -3.13519,4.34397 -4.70277,10.34987 -4.70274,18.01777 -3e-5,7.668 1.56755,13.6928 4.70274,18.0745 3.17293,4.3439 7.51683,6.5158 13.03175,6.5158 5.51483,0 9.83986,-2.1719 12.97508,-6.5158 3.17288,-4.3817 4.75936,-10.4065 4.75941,-18.0745 m -35.46898,-22.15393 c 2.19082,-3.77726 4.94824,-6.57248 8.27231,-8.38563 3.36179,-1.85085 7.36573,-2.77628 12.01186,-2.77636 7.70567,8e-5 13.95713,3.05971 18.75437,9.17891 4.83489,6.11928 7.25239,14.16496 7.25246,24.13701 -7e-5,9.9722 -2.41757,18.0178 -7.25246,24.1371 -4.79724,6.1191 -11.0487,9.1788 -18.75437,9.1788 -4.64613,0 -8.65007,-0.9066 -12.01186,-2.7197 -3.32407,-1.8509 -6.08149,-4.6649 -8.27231,-8.4422 l 0,9.5187 -10.48205,0 0,-88.16243 10.48205,0 0,34.3358 m -36.566114,21.92733 c -8.423445,10e-5 -14.259391,0.9633 -17.507857,2.8897 -3.248511,1.9264 -4.872755,5.2127 -4.872736,9.8588 -1.9e-5,3.7018 1.208721,6.648 3.626221,8.8389 2.455233,2.1531 5.779267,3.2296 9.972115,3.2296 5.779254,0 10.406459,-2.0398 13.881631,-6.1192 3.51285,-4.1173 5.26936,-9.5755 5.26936,-16.3747 l 0,-2.3231 -10.368734,0 m 20.794114,-4.3061 0,36.2056 -10.42538,0 0,-9.6322 c -2.37976,3.8529 -5.34495,6.7048 -8.89558,8.5557 -3.550717,1.8131 -7.894624,2.7197 -13.03174,2.7197 -6.497003,0 -11.671921,-1.8134 -15.524765,-5.4395 -3.815097,-3.6639 -5.72264,-8.5556 -5.722633,-14.6748 -7e-6,-7.1391 2.379699,-12.5218 7.139126,-16.148 4.797173,-3.6262 11.936289,-5.43938 21.417377,-5.43938 l 14.618215,0 0,-1.01987 c -6e-5,-4.79714 -1.58653,-8.49893 -4.75942,-11.10531 -3.135215,-2.64406 -7.554671,-3.96612 -13.258378,-3.96619 -3.626251,7e-5 -7.158036,0.43445 -10.595369,1.30319 -3.437374,0.86884 -6.742524,2.17201 -9.915453,3.90951 l 0,-9.63215 c 3.815073,-1.47307 7.516838,-2.5685 11.105308,-3.28626 3.588422,-0.7554 7.082436,-1.13313 10.482049,-1.1332 9.178834,7e-5 16.034653,2.37977 20.567483,7.13913 4.53272,4.75949 6.7991,11.97414 6.79916,21.64403 m -66.916757,4.5328 c -5.6e-5,-7.668 -1.586528,-13.67387 -4.759416,-18.01783 -3.135221,-4.38162 -7.460243,-6.57248 -12.975079,-6.57252 -5.514914,4e-5 -9.858821,2.1909 -13.031738,6.57252 -3.135194,4.34396 -4.702779,10.34983 -4.702759,18.01783 -2e-5,7.6679 1.567565,13.6928 4.702759,18.0744 3.172917,4.3439 7.516824,6.5159 13.031738,6.5159 5.514836,0 9.839858,-2.172 12.975079,-6.5159 3.172888,-4.3816 4.75936,-10.4065 4.759416,-18.0744 M 14.049461,986.19212 c 2.190821,-3.77726 4.948259,-6.57248 8.272322,-8.38565 3.361777,-1.85083 7.365728,-2.77627 12.011863,-2.77634 7.705673,7e-5 13.957125,3.05969 18.754368,9.17889 4.834901,6.1193 7.25238,14.16496 7.252447,24.13708 -6.7e-5,9.9721 -2.417546,18.0178 -7.252447,24.137 -4.797243,6.1193 -11.048695,9.179 -18.754368,9.179 -4.646135,0 -8.650086,-0.9066 -12.011863,-2.7197 -3.324063,-1.8509 -6.081501,-4.6651 -8.272322,-8.4424 l 0,9.5189 -10.4820483,0 0,-88.16258 10.4820483,0 0,34.3358"
       inkscape:connector-curvature="0"
       sodipodi:nodetypes="cccccccccccccccccccccscsccccccsccsccssssccccccccccccsscccccccccccccccccccccccccccccccccscsccccccccsccccccccsscscscccccccscscscccccccccccccccscsccccccccsccccccc" />
  </g>
</svg>
